<svg id="_ëîé_1" data-name="‘ëîé_1" xmlns="http://www.w3.org/2000/svg" viewBox="0 0 3058.48 2483.62"><defs><style>.cls-1{fill:none;stroke:#c8def4;stroke-miterlimit:10;stroke-width:20px;}.cls-2{fill:#c8def4;}.cls-3{fill:#211f44;}.cls-4{fill:#fff;}.cls-5{fill:#749dd3;}.cls-6{fill:#314982;}.cls-7{fill:#262f5f;}.cls-8{fill:#2c447d;}</style></defs><path class="cls-1" d="M3912.86,1351.68c-102.34-276.79-379.92-475.28-673.86-407-276.64,64.31-475.51,309.3-739.46,407.45-276.74,102.9-516.72,30-766.08-92.14-215-105.27-471.87-189.7-651.36,40.93-194.64,250.1-168.61,633-72.77,911.22,94.5,274.29,280.54,500.64,521.17,647.55,479.6,292.8,1156.26,316.74,1664.84,44.89C3721.08,2623.61,4136,1955.06,3912.86,1351.68Z" transform="translate(-926.07 -644.73)"/><path class="cls-2" d="M3654.15,887.94c-187.5-227.88-514.83-324.31-770.08-163.32-240.23,151.51-347.71,448.19-564.85,627.51-227.65,188-478.27,197.86-753.9,164.31-237.58-28.92-508-24.38-601.87,252.38-101.8,300.11,48.42,653.29,230.23,884.65,179.26,228.1,429.27,380.88,704.78,440.71,549.12,119.24,1196.18-80.17,1587.41-503.83C3890.3,2152.39,4062.88,1384.72,3654.15,887.94Z" transform="translate(-926.07 -644.73)"/><path class="cls-3" d="M2448.23,1227l-841.89,723.3L1622,2277.61c0,39,47.09,592.5,91.88,592.5L2500,2344l708.32,472.07c44.79,0,131.26-514.34,131.26-553.38l52.36-313.15L2549.29,1227C2519.72,1206.51,2477.8,1206.51,2448.23,1227Z" transform="translate(-926.07 -644.73)"/><path class="cls-4" d="M891.9,841.35H2250.24a65.54,65.54,0,0,1,65.54,65.54V2290.51a65.54,65.54,0,0,1-65.54,65.54H891.9a65.53,65.53,0,0,1-65.53-65.53V906.89A65.54,65.54,0,0,1,891.9,841.35Z"/><path class="cls-2" d="M2202.38,2368.42h-315.7a22.15,22.15,0,0,1-22.15-22.14v-315.7a22.15,22.15,0,0,1,22.15-22.15h315.7a22.15,22.15,0,0,1,22.14,22.15v315.7A22.14,22.14,0,0,1,2202.38,2368.42Zm-293.56-44.29h271.41v-271.4H1908.82Z" transform="translate(-926.07 -644.73)"/><path class="cls-5" d="M3168.32,2282.07h-788a22.15,22.15,0,0,1,0-44.29h788a22.15,22.15,0,1,1,0,44.29Z" transform="translate(-926.07 -644.73)"/><path class="cls-6" d="M2023,2296.88h-.54a22.16,22.16,0,0,1-19.17-12l-38.61-75.28a22.14,22.14,0,1,1,39.4-20.21l20,39.06,79.12-137.34a22.15,22.15,0,0,1,38.38,22.11l-99.43,172.61A22.16,22.16,0,0,1,2023,2296.88Z" transform="translate(-926.07 -644.73)"/><rect class="cls-2" x="1432.16" y="1450.06" width="440.16" height="43.91" rx="21.96"/><path class="cls-2" d="M2202.38,1958.06h-315.7a22.15,22.15,0,0,1-22.15-22.15v-315.7a22.15,22.15,0,0,1,22.15-22.14h315.7a22.14,22.14,0,0,1,22.14,22.14v315.7A22.15,22.15,0,0,1,2202.38,1958.06Zm-293.56-44.3h271.41v-271.4H1908.82Z" transform="translate(-926.07 -644.73)"/><path class="cls-2" d="M2980,1728.71H2377.63c-10.71,0-19.4-9.91-19.4-22.14s8.69-22.15,19.4-22.15H2980c10.71,0,19.4,9.92,19.4,22.15S2990.73,1728.71,2980,1728.71Z" transform="translate(-926.07 -644.73)"/><path class="cls-5" d="M3121,1871.7H2379.08c-11.52,0-20.85-9.92-20.85-22.15s9.33-22.14,20.85-22.14H3121c11.51,0,20.85,9.91,20.85,22.14S3132.47,1871.7,3121,1871.7Z" transform="translate(-926.07 -644.73)"/><path class="cls-6" d="M2023,1886.51h-.54a22.14,22.14,0,0,1-19.17-12l-38.61-75.28a22.14,22.14,0,1,1,39.4-20.21l20,39.06,79.12-137.34a22.15,22.15,0,1,1,38.38,22.12l-99.43,172.6A22.16,22.16,0,0,1,2023,1886.51Z" transform="translate(-926.07 -644.73)"/><path class="cls-7" d="M2517.26,2497.33l406.23-399.71c106.69-105,259-164.95,418.8-164.95h0c37.53,0,68,23.85,68,53.27V3054.27c0,29.42-50.74,74.08-88.28,74.08H3091.14L2517.26,2563.7C2498.06,2544.82,2498.06,2516.21,2517.26,2497.33Z" transform="translate(-926.07 -644.73)"/><path class="cls-7" d="M2482.74,2496.6l-406.23-399.71c-106.69-105-259-164.95-418.8-164.95h0c-37.53,0-68,23.85-68,53.27V3060c0,29.41,43.57,68.4,81.1,68.4l238-.73L2482.74,2563C2501.94,2544.09,2501.94,2515.48,2482.74,2496.6Z" transform="translate(-926.07 -644.73)"/><path class="cls-8" d="M3410.25,2835.61V3066c0,34.44-36.32,62.35-81.09,62.35H1670.84c-44.77,0-81.09-27.91-81.09-62.35V2835.61l859.72-526.49c14-8.56,30.75-13.09,47.67-13.54,18.81-.52,37.81,4,53.39,13.54Z" transform="translate(-926.07 -644.73)"/><polygon class="cls-3" points="1734.93 1710.43 2484.18 2092.86 2484.18 2190.88 1721.45 1723.69 1734.93 1710.43"/><polygon class="cls-3" points="1412.93 1710.43 663.68 2092.86 663.68 2190.88 1426.4 1723.69 1412.93 1710.43"/><polygon class="cls-8" points="1145.83 435.48 970.12 1006.15 941.96 1097.6 861.69 1029.86 651.88 852.85 1145.83 435.48"/><polygon class="cls-7" points="1145.83 435.48 535.34 788.06 257.65 696.03 1145.83 435.48"/><polygon class="cls-3" points="1145.83 435.48 651.89 852.86 556.96 1042.66 535.34 788.06 1145.83 435.48"/><path class="cls-5" d="M2256.36,3011.55a10.09,10.09,0,0,1-2.86-.41c-20.39-6.07-40.85-13-60.81-20.68a10,10,0,0,1,7.16-18.68c19.48,7.47,39.45,14.26,59.36,20.19a10,10,0,0,1-2.85,19.58Zm-137.47-54.67a9.92,9.92,0,0,1-4.49-1.08c-19-9.59-37.94-20-56.22-31a10,10,0,1,1,10.32-17.13c17.85,10.75,36.32,20.95,54.9,30.32a10,10,0,0,1-4.51,18.93ZM1993.13,2879a9.89,9.89,0,0,1-6-2c-17.11-12.79-33.91-26.37-50-40.38A9.93,9.93,0,0,1,1934,2831a295.7,295.7,0,0,1-28.61,8.47,10,10,0,1,1-4.7-19.44,267.32,267.32,0,0,0,57.35-20.93,10,10,0,1,1,9,17.86q-7,3.53-14.24,6.67c14.93,12.93,30.51,25.48,46.35,37.33a10,10,0,0,1-6,18ZM1819,2847.66h-.48a365.24,365.24,0,0,1-64.55-9.06,10,10,0,1,1,4.5-19.48,345.8,345.8,0,0,0,61,8.56,10,10,0,0,1-.47,20Zm-142.79-36a10.05,10.05,0,0,1-4.08-.87,560.82,560.82,0,0,1-57.29-29.86,10,10,0,0,1,10.22-17.19,541.9,541.9,0,0,0,55.24,28.79,10,10,0,0,1-4.09,19.13ZM1883,2780.22a10,10,0,0,1-7.37-3.23,420.09,420.09,0,0,1-40.16-51.1,10,10,0,1,1,16.66-11.07,398.54,398.54,0,0,0,38.24,48.64,10,10,0,0,1-7.37,16.76Zm147-12.46a10,10,0,0,1-7.34-16.78,201.32,201.32,0,0,0,17.21-21.43,174.06,174.06,0,0,0,16-28.48,10,10,0,0,1,18.27,8.15,194.17,194.17,0,0,1-17.85,31.74,221.06,221.06,0,0,1-18.93,23.58A10,10,0,0,1,2030,2767.76Zm-479.77-33.37a9.91,9.91,0,0,1-6.16-2.13c-16.76-13.15-33.16-27.29-48.76-42a10,10,0,0,1,13.74-14.54c15.16,14.33,31.09,28.07,47.36,40.84a10,10,0,0,1-6.18,17.87Zm256.45-79.82a10,10,0,0,1-9.56-7.05c-6-19.54-9.07-38.58-9.07-56.6,0-3.19.1-6.4.29-9.53a10,10,0,1,1,20,1.21c-.17,2.73-.25,5.53-.25,8.32,0,16,2.75,33.08,8.19,50.7a10,10,0,0,1-6.61,12.51A10.15,10.15,0,0,1,1806.7,2654.57Zm275.56-21.66a10,10,0,0,1-10-10,174.57,174.57,0,0,0-10.16-58.89,10,10,0,0,1,18.81-6.8,194.55,194.55,0,0,1,11.35,65.61,10,10,0,0,1-10,10Zm-637.91-1.67a10,10,0,0,1-7.7-3.6c-13.64-16.42-26.73-33.66-38.9-51.26A10,10,0,1,1,1414.2,2565c11.83,17.11,24.56,33.88,37.83,49.84a10,10,0,0,1-7.68,16.39ZM1829.5,2515a10,10,0,0,1-7.42-16.71c14.79-16.35,34.49-29.05,57-36.73a10,10,0,1,1,6.46,18.93c-19.29,6.58-36.1,17.37-48.61,31.21A10,10,0,0,1,1829.5,2515ZM1362,2508.41a10,10,0,0,1-8.84-5.32c-10-18.92-19.32-38.48-27.59-58.13a10,10,0,1,1,18.43-7.76c8,19.11,17.07,38.13,26.83,56.53a10,10,0,0,1-8.83,14.68Zm661.11-5.84a9.93,9.93,0,0,1-6.08-2.07c-15-11.53-33.47-19.89-53.35-24.18a10,10,0,1,1,4.22-19.55,154.74,154.74,0,0,1,61.31,27.87,10,10,0,0,1-6.1,17.93Zm-716.39-131.29a10,10,0,0,1-9.61-7.27c-5.88-20.65-10.84-41.74-14.73-62.68a10,10,0,1,1,19.66-3.65c3.78,20.32,8.59,40.8,14.3,60.86a10,10,0,0,1-9.62,12.74ZM1282,2225.53a10,10,0,0,1-10-9.41c-.79-13.49-1.19-27.22-1.19-40.79,0-7.82.13-15.76.39-23.58a10,10,0,1,1,20,.66c-.25,7.61-.38,15.32-.38,22.92,0,13.19.39,26.52,1.15,39.62a10,10,0,0,1-9.4,10.57Zm7.11-147.68a9.84,9.84,0,0,1-1.53-.11,10,10,0,0,1-8.37-11.41c3.25-21.1,7.48-42.33,12.58-63.1a10,10,0,0,1,19.43,4.77c-5,20.2-9.08,40.85-12.24,61.37A10,10,0,0,1,1289.15,2077.85Zm37.37-143a10,10,0,0,1-9.36-13.52c7.52-20.06,16-40,25.25-59.19a10,10,0,0,1,18,8.66c-9,18.69-17.24,38-24.55,57.55A10,10,0,0,1,1326.52,1934.8Zm66.08-132.26a10,10,0,0,1-8.41-15.4c11.59-18.09,24.12-35.77,37.24-52.54a10,10,0,0,1,15.75,12.32c-12.73,16.28-24.89,33.44-36.15,51A10,10,0,0,1,1392.6,1802.54Z" transform="translate(-926.07 -644.73)"/><path class="cls-5" d="M2775.53,3001.14a10.43,10.43,0,0,1-1.75-.15,10,10,0,0,1-8.11-11.59,277.81,277.81,0,0,1,19.19-62.81,10,10,0,0,1,18.33,8,258.15,258.15,0,0,0-17.83,58.28A10,10,0,0,1,2775.53,3001.14Zm441.65-80.06c-.29,0-.59,0-.89,0a126.75,126.75,0,0,1-63.57-24.56,10,10,0,0,1,11.93-16.05,106.56,106.56,0,0,0,53.39,20.69,10,10,0,0,1-.86,20Zm74.54-31.39a10,10,0,0,1-8-16c10.27-13.68,15.7-31.22,15.7-50.72,0-.91,0-1.83,0-2.74a10,10,0,0,1,20-.53c0,1.09,0,2.18,0,3.27,0,23.87-6.81,45.56-19.71,62.73A10,10,0,0,1,3291.72,2889.69Zm-454.09-21.37a10,10,0,0,1-7.87-16.16,426.56,426.56,0,0,1,43.86-47.9,10,10,0,0,1,13.7,14.57,406.57,406.57,0,0,0-41.8,45.64A10,10,0,0,1,2837.63,2868.32Zm279.89-40.93a10,10,0,0,1-9.93-8.91,127.58,127.58,0,0,1-.75-13.72,140.84,140.84,0,0,1,10.81-53.27,10,10,0,0,1,18.52,7.55,120.91,120.91,0,0,0-9.33,45.72,107.83,107.83,0,0,0,.63,11.54,10,10,0,0,1-8.85,11A10.28,10.28,0,0,1,3117.52,2827.39Zm-170.37-57.86a10,10,0,0,1-5.43-18.41,482.27,482.27,0,0,1,56.69-31.39,10,10,0,0,1,8.47,18.12,460.67,460.67,0,0,0-54.32,30.08A10,10,0,0,1,2947.15,2769.53Zm332.47-17.11a10,10,0,0,1-7.6-3.49,99.44,99.44,0,0,0-11.18-11.12,138.24,138.24,0,0,0-36.67-22.11,10,10,0,0,1,7.64-18.48,158.36,158.36,0,0,1,42,25.32,120.18,120.18,0,0,1,13.44,13.36,10,10,0,0,1-7.58,16.52Zm-197.29-41.77a10,10,0,0,1-2.31-19.73c3.78-.9,7.58-1.75,11.3-2.51a296,296,0,0,1,53.63-6.13,10,10,0,0,1,.4,20,275.78,275.78,0,0,0-50,5.72c-3.52.72-7.11,1.52-10.69,2.37A9.83,9.83,0,0,1,3082.33,2710.65ZM3178,2699a10,10,0,0,1-6.08-18,162.68,162.68,0,0,1,26.71-16.58,211.23,211.23,0,0,1,33.21-12.82,10,10,0,1,1,5.65,19.18,190.65,190.65,0,0,0-30,11.59,142.86,142.86,0,0,0-23.4,14.53A9.9,9.9,0,0,1,3178,2699Zm140.18-40.23a10,10,0,0,1-.54-20c11.72-.65,23.55-1.05,35-1.44l5-.17c9.42-.33,16.67-.63,23.48-1a10,10,0,0,1,1.07,20c-7,.37-14.3.69-23.86,1l-5,.17c-11.34.38-23.07.78-34.58,1.42Zm147-14.72a10,10,0,0,1-2.74-19.62,178.24,178.24,0,0,0,43.49-18.49,86.37,86.37,0,0,0,9.82-7,10,10,0,1,1,12.59,15.54,106.72,106.72,0,0,1-12.11,8.6,198.25,198.25,0,0,1-48.29,20.57A10.16,10.16,0,0,1,3465.2,2644ZM3575,2551.2a9.88,9.88,0,0,1-4.92-1.3,10,10,0,0,1-3.77-13.63,275.8,275.8,0,0,0,24.09-56.2,10,10,0,0,1,19.15,5.78,296,296,0,0,1-25.84,60.28A10,10,0,0,1,3575,2551.2Zm36.53-141.73a10,10,0,0,1-10-9.79,263.48,263.48,0,0,0-8.42-60.43,10,10,0,1,1,19.36-5,283.26,283.26,0,0,1,9.06,65,10,10,0,0,1-9.8,10.2Z" transform="translate(-926.07 -644.73)"/><circle class="cls-5" cx="2546.76" cy="1430.01" r="209.59"/><path class="cls-4" d="M3553.45,2101.71v-47.36a80.61,80.61,0,0,0-80.62-80.61h0a80.61,80.61,0,0,0-80.61,80.61v47.36c0,25.76-7.06,35.6-20.41,57.63h202.05C3560.51,2137.31,3553.45,2127.47,3553.45,2101.71Z" transform="translate(-926.07 -644.73)"/><path class="cls-4" d="M3472.83,2200.44h0a30.43,30.43,0,0,1-30.42-30.43h60.85A30.43,30.43,0,0,1,3472.83,2200.44Z" transform="translate(-926.07 -644.73)"/><path class="cls-4" d="M3472.83,1949a24.7,24.7,0,1,0,24.69,24.7A24.7,24.7,0,0,0,3472.83,1949Zm0,39.53a14.84,14.84,0,1,1,14.84-14.83A14.83,14.83,0,0,1,3472.83,1988.57Z" transform="translate(-926.07 -644.73)"/><path class="cls-5" d="M3472.83,2331A256.29,256.29,0,1,1,3654.07,2256,254.62,254.62,0,0,1,3472.83,2331Zm0-492.6a236.3,236.3,0,1,0,167.09,69.21A234.75,234.75,0,0,0,3472.83,1838.44Z" transform="translate(-926.07 -644.73)"/><path class="cls-7" d="M3284.11,1446.14a10,10,0,0,1-7.08-17.07l65.54-65.53a10,10,0,1,1,14.14,14.14l-65.53,65.53A10,10,0,0,1,3284.11,1446.14Z" transform="translate(-926.07 -644.73)"/><path class="cls-7" d="M3284.11,1448.64a12.5,12.5,0,0,1-8.84-21.34l65.53-65.53a12.5,12.5,0,0,1,17.68,17.68L3292.94,1445A12.41,12.41,0,0,1,3284.11,1448.64Zm65.53-85.52a7.51,7.51,0,0,0-5.31,2.19l-65.53,65.53a7.5,7.5,0,1,0,10.61,10.6l65.53-65.53a7.49,7.49,0,0,0-5.3-12.79Z" transform="translate(-926.07 -644.73)"/><path class="cls-7" d="M3424.23,1539.92a11,11,0,0,1-1.5-.11l-109.05-16.39a10,10,0,1,1,3-19.77L3425.71,1520a10,10,0,0,1-1.48,19.89Z" transform="translate(-926.07 -644.73)"/><path class="cls-7" d="M3424.23,1542.42a13.08,13.08,0,0,1-1.87-.14L3313.3,1525.9a12.5,12.5,0,0,1,3.72-24.73l109.06,16.39a12.5,12.5,0,0,1-1.85,24.86ZM3315.16,1506a7.5,7.5,0,0,0-1.11,14.91l109.06,16.39a8.44,8.44,0,0,0,1.12.08,7.5,7.5,0,0,0,1.1-14.92l-109-16.38A7.12,7.12,0,0,0,3315.16,1506Z" transform="translate(-926.07 -644.73)"/><path class="cls-7" d="M3206.7,1415.09a10,10,0,0,1-9.88-8.52l-16.38-109.06a10,10,0,0,1,19.78-3l16.38,109.06a10,10,0,0,1-8.4,11.37A9.67,9.67,0,0,1,3206.7,1415.09Z" transform="translate(-926.07 -644.73)"/><path class="cls-7" d="M3206.7,1417.59a12.57,12.57,0,0,1-12.35-10.65L3178,1297.88a12.5,12.5,0,0,1,24.72-3.71l16.38,109.06a12.52,12.52,0,0,1-10.5,14.22A13.08,13.08,0,0,1,3206.7,1417.59Zm-16.36-129.06a7.24,7.24,0,0,0-1.13.08,7.51,7.51,0,0,0-6.3,8.53l16.38,109.06a7.55,7.55,0,0,0,7.41,6.39,7,7,0,0,0,1.12-.09,7.51,7.51,0,0,0,6.31-8.53l-16.39-109.06a7.51,7.51,0,0,0-7.4-6.38Z" transform="translate(-926.07 -644.73)"/></svg>