<?xml version="1.0" encoding="UTF-8"?><svg id="a" xmlns="http://www.w3.org/2000/svg" viewBox="0 0 150 50"><defs><style>.b{fill:#fff;}.c{fill:#aad4c8;}</style></defs><g><path class="b" d="M29.82,15.38c1.11,.72,2.43,1.14,3.85,1.14,3.92,0,7.12-3.19,7.12-7.11s-3.19-7.11-7.12-7.11-7.11,3.19-7.11,7.11c0,.66,.1,1.29,.27,1.9l-4.22,2.99-6.68,4.74c-1-.53-2.13-.83-3.34-.83-3.92,0-7.11,3.19-7.11,7.11s3.19,7.11,7.11,7.11c1.69,0,3.25-.59,4.47-1.58l5.55,3.93,4.22,2.99c-.17,.61-.27,1.24-.27,1.9,0,3.92,3.19,7.11,7.11,7.11s7.12-3.19,7.12-7.11-3.19-7.11-7.12-7.11c-1.42,0-2.74,.42-3.85,1.14l-6.04-4.28-4.18-2.96c.06-.37,.1-.75,.1-1.14,0-.86-.16-1.68-.44-2.44l4.52-3.21,6.04-4.28Zm3.69-10.04c2.21,0,4,1.79,4,4s-1.79,4.01-4,4.01-4.01-1.79-4.01-4.01,1.79-4,4.01-4ZM12.51,29.56c-2.21,0-4.01-1.79-4.01-4.01s1.79-4,4.01-4,4,1.79,4,4-1.79,4.01-4,4.01Zm21.01,6.16c2.21,0,4,1.79,4,4s-1.79,4.01-4,4.01-4.01-1.79-4.01-4.01,1.79-4,4.01-4Z"/><path class="c" d="M29.51,39.72c0,2.21,1.79,4.01,4.01,4.01s4-1.79,4-4.01-1.79-4-4-4-4.01,1.79-4.01,4Z"/><path class="c" d="M8.5,25.55c0,2.21,1.79,4.01,4.01,4.01s4-1.79,4-4.01-1.79-4-4-4-4.01,1.79-4.01,4Z"/><path class="c" d="M29.51,9.34c0,2.21,1.79,4.01,4.01,4.01s4-1.79,4-4.01-1.79-4-4-4-4.01,1.79-4.01,4Z"/></g><g><path class="b" d="M46.74,20.53c0,.94-.7,1.77-2.11,1.77-1.59,0-3.22-1.92-3.22-4.26,0-2.91,1.95-5.62,5.67-5.62,1.27,0,2.11,.05,4.11,.42,6.55,1.17,8.53,1.35,11.05,1.38,.18,.18,.31,.68,.31,.99,0,1.64-1.59,2.73-3.54,2.73-.88,0-2.24-.13-3.41-.47-.39,1.17-.6,2.18-.88,3.82,.42,.05,.78,.13,1.12,.13,1.27-.03,2.05-.18,2.73-.39,.23,.18,.47,.65,.47,1.01,0,1.72-1.3,2.55-3.07,2.55-.7,0-1.77-.23-1.77-.23-.08,.44-.65,2.76-.73,3.12-1.04,4.63-3.35,8.01-7.05,8.01-2.6,0-3.98-1.46-3.98-3.72,0-1.95,1.22-4.13,7.38-8.24-.44-.36-.7-.91-.7-1.43,0-.44,.21-.88,.7-1.14,.23-.13,.55-.18,.91-.21,.36-1.48,.83-2.55,1.69-4.06-2.76-.88-4.63-1.17-6.03-1.17s-2.05,.68-2.05,1.9c0,1.04,.6,2.08,2.39,3.12Zm-.99,10.87c0,1.07,.39,1.46,.96,1.46,.96,0,1.98-2.13,2.78-6.58-2.99,2.78-3.74,4.16-3.74,5.12Z"/><path class="b" d="M59.5,24.38c0-1.53,2.31-4.26,3.93-4.26,1.2,0,1.3,.65,1.3,1.66,0,.68-.44,1.77-.91,2.86-.73,1.79-1.07,2.63-1.07,3.22,0,.29,.13,.39,.36,.39,.36,0,1.53-.83,3.28-3.3,.49,0,1.01,.42,1.01,.94,0,1.64-4.13,6.03-6.53,6.03-1.53,0-2.05-.68-2.05-2.11,0-1.14,.29-2.21,.94-3.82-.21-.49-.26-1.09-.26-1.61Zm4.89-11.13c1.04,0,2.21,1.14,2.21,1.95,0,.62-.49,1.64-1.74,3.17-1.01,0-1.74-.75-1.74-2.26,0-2.11,.44-2.86,1.27-2.86Z"/><path class="b" d="M67.28,18.16c.47-3.51,2.31-5.62,4.37-5.62,1.12,0,1.82,.52,1.82,1.85,0,1.14-.52,2.42-2.47,6.08-.7,2.52-1.92,7.05-1.92,7.7,0,.29,.13,.39,.36,.39,.81,0,2.34-1.48,3.69-3.59,.49,0,.99,.36,.99,.88,0,1.98-4.21,6.06-6.84,6.06-1.51,0-2.05-.65-2.05-2,0-1.74,.83-4.76,1.04-5.85,.31-1.69,.78-4.13,1.01-5.9Z"/><path class="b" d="M72.09,27.42c0-3.93,3.2-7.93,5.72-7.93,1.79,0,2.78,.86,2.78,2.68,0,2.18-1.27,3.87-4.84,4.68,0,1.17,.23,1.82,1.25,1.82,1.77,0,4.06-1.51,5.54-3.77,.62,.03,.99,.44,.99,.86,0,1.92-4.34,6.06-7.72,6.06-2.55,0-3.72-1.59-3.72-4.39Zm5.07-5.2c-.36,0-1.07,.88-1.25,2.7,1.46-.26,1.77-1.07,1.77-1.85,0-.55-.21-.86-.52-.86Z"/><path class="b" d="M89.71,24.22c.44,0,.83,.13,1.07,.42v.49c0,3.54,1.61,5.1,3.35,5.1,.99,0,1.77-.91,1.77-2.24,0-.86-.16-1.56-2.57-4.63-1.38-1.77-1.82-3.22-1.82-4.84,0-2.89,2.24-5.98,5.51-5.98,2.81,0,3.93,1.61,3.93,3.17,0,1.01-.55,1.85-1.12,2.13-1.38-1.14-2.34-1.66-3.3-1.66-.57,0-1.04,.49-1.04,1.25,0,.83,.44,1.85,1.95,3.95,2.18,3.09,2.55,4.19,2.55,5.72,0,2.94-2.7,6.45-7.07,6.45-4,0-6.03-2.37-6.03-5.23,0-1.9,1.01-4.11,2.83-4.11Z"/><path class="b" d="M107.45,12.55c1.12,0,1.69,.52,1.69,1.85,0,1.14-.57,2.65-2.6,6.01l-.62,2.44c1.87-1.72,3.48-2.55,4.5-2.55s1.51,.62,1.51,1.53c0,.81-.23,1.61-.62,2.6-.44,1.14-1.3,3.25-1.3,3.9,0,.29,.13,.39,.36,.39,.47,0,2.08-1.27,3.77-3.69,.49,0,1.01,.34,1.01,.86,0,1.64-4.42,6.19-6.81,6.19-1.53,0-2.05-.68-2.05-2.11,0-1.72,1.35-4.71,1.35-5.28,0-.21-.08-.42-.36-.42-.44,0-1.07,.29-1.77,.88-.26,1.85-.44,3.8-.47,6.21-.23,.26-.68,.36-1.2,.36-1.51,0-2.63-1.38-2.65-2.73,0-.81,.21-1.74,.86-2.86,1.01-9.49,2.08-13.6,5.41-13.6Z"/><path class="b" d="M115.63,31.58c-1.48,0-2.57-1.22-2.57-3.59,0-3.9,3.22-7.98,5.82-7.98,.36,0,.55,.05,.68,.18l.08-1.51c.21-.23,.55-.34,.91-.34,1.77,0,2.73,1.2,2.73,2.11,0,.34-.08,.99-.29,1.72-.91,3.28-1.25,4.91-1.25,5.59,0,.52,.1,.6,.31,.6,.52,0,1.87-.99,3.54-3.33,.55,0,.96,.34,.96,.81,0,1.69-4.32,5.88-6.19,5.88-1.14,0-1.87-.47-1.87-2.13,0-.29,.03-.62,.08-1.01-.83,2.37-2.03,3.02-2.94,3.02Zm3.8-9.7c-1.3,.83-2.55,2.99-2.55,4.99,0,.96,.31,1.07,.68,1.07s.73-.26,1.04-.65l.83-5.41Z"/><path class="b" d="M132.93,23.08c0,.52-.29,1.14-.7,1.98-.6,1.2-1.12,2.47-1.12,3.12,0,.36,.1,.62,.44,.62,.73,0,2.55-1.61,3.93-3.77,.65,0,1.09,.42,1.09,.81,0,1.64-4.45,6.27-6.84,6.27-1.59,0-2.47-.7-2.47-2.18,0-1.72,1.27-3.93,1.27-4.6,0-.31-.29-.47-.86-.7-.81,1.53-1.4,2.44-2.26,3.41-.65,0-1.04-.47-1.04-1.01,0-.21,.05-.44,.18-.62,.68-.96,1.17-1.61,1.61-2.68-.21-.23-.39-.57-.39-1.07,0-1.82,2.73-4.39,4.19-4.39,.88,0,1.48,.42,1.48,1.12,0,.18-.03,.36-.08,.52-.62,.34-1.17,.73-1.51,1.3,.29,.16,.78,.34,1.22,.47,1.53,.44,1.85,.81,1.85,1.43Z"/><path class="b" d="M134.43,27.42c0-3.93,3.2-7.93,5.72-7.93,1.79,0,2.78,.86,2.78,2.68,0,2.18-1.27,3.87-4.84,4.68,0,1.17,.23,1.82,1.25,1.82,1.77,0,4.06-1.51,5.54-3.77,.62,.03,.99,.44,.99,.86,0,1.92-4.34,6.06-7.72,6.06-2.55,0-3.72-1.59-3.72-4.39Zm5.07-5.2c-.36,0-1.07,.88-1.25,2.7,1.46-.26,1.77-1.07,1.77-1.85,0-.55-.21-.86-.52-.86Z"/></g></svg>