<svg id="Layer_1" data-name="Layer 1" xmlns="http://www.w3.org/2000/svg" xmlns:xlink="http://www.w3.org/1999/xlink" viewBox="0 0 93.11 17.54"><defs><style>.cls-1,.cls-3{fill:url(#New_Gradient_Swatch_2);}.cls-1,.cls-2{clip-rule:evenodd;}.cls-2,.cls-6{fill:url(#New_Gradient_Swatch_2-2);}.cls-3,.cls-6{fill-rule:evenodd;}.cls-4{clip-path:url(#clip-path);}.cls-5{fill:url(#New_Gradient_Swatch_2-4);}.cls-7{clip-path:url(#clip-path-2);}.cls-8{fill:url(#New_Gradient_Swatch_2-6);}.cls-9{fill:url(#New_Gradient_Swatch_2-7);}</style><linearGradient id="New_Gradient_Swatch_2" x1="5.12" y1="17.78" x2="17.68" y2="17.78" gradientUnits="userSpaceOnUse"><stop offset="0" stop-color="#969696"/><stop offset="1" stop-color="#fff"/></linearGradient><linearGradient id="New_Gradient_Swatch_2-2" x1="5.12" y1="11.85" x2="22.39" y2="11.85" xlink:href="#New_Gradient_Swatch_2"/><clipPath id="clip-path" transform="translate(-5.12 -3.22)"><path class="cls-1" d="M17.68,15.15H16.47l-1.09,3.56L14.2,15.13h-1L12,18.71l-1.09-3.56H9.7l1.79,5.3h1L13.69,17l1.19,3.45h1Zm-8.4,3.7h0c0-.92-.6-1.3-1.66-1.58s-1.14-.35-1.14-.69v0c0-.25.23-.46.68-.46a2.52,2.52,0,0,1,1.37.52l.6-.87a3.06,3.06,0,0,0-2-.67,1.65,1.65,0,0,0-1.84,1.59h0c0,1,.68,1.34,1.74,1.61.88.23,1.06.38,1.06.67h0c0,.31-.28.5-.75.5a2.44,2.44,0,0,1-1.58-.64l-.68.82a3.32,3.32,0,0,0,2.23.84C8.49,20.48,9.28,19.9,9.28,18.85Z"/></clipPath><linearGradient id="New_Gradient_Swatch_2-4" x1="6.29" y1="17.27" x2="6.27" y2="11.33" xlink:href="#New_Gradient_Swatch_2"/><clipPath id="clip-path-2" transform="translate(-5.12 -3.22)"><polygon class="cls-2" points="21.15 19.25 18.92 19.25 18.92 20.48 22.39 20.48 22.39 3.22 5.12 3.22 5.12 13.83 6.36 13.83 6.36 4.45 21.15 4.45 21.15 19.25"/></clipPath><linearGradient id="New_Gradient_Swatch_2-6" x1="8.71" y1="17.27" x2="8.55" y2="-1.67" xlink:href="#New_Gradient_Swatch_2"/><linearGradient id="New_Gradient_Swatch_2-7" x1="61.68" y1="20.76" x2="61.68" y2="12" xlink:href="#New_Gradient_Swatch_2"/></defs><path class="cls-3" d="M17.68,15.15H16.47l-1.09,3.56L14.2,15.13h-1L12,18.71l-1.09-3.56H9.7l1.79,5.3h1L13.69,17l1.19,3.45h1Zm-8.4,3.7h0c0-.92-.6-1.3-1.66-1.58s-1.14-.35-1.14-.69v0c0-.25.23-.46.68-.46a2.52,2.52,0,0,1,1.37.52l.6-.87a3.06,3.06,0,0,0-2-.67,1.65,1.65,0,0,0-1.84,1.59h0c0,1,.68,1.34,1.74,1.61.88.23,1.06.38,1.06.67h0c0,.31-.28.5-.75.5a2.44,2.44,0,0,1-1.58-.64l-.68.82a3.32,3.32,0,0,0,2.23.84C8.49,20.48,9.28,19.9,9.28,18.85Z" transform="translate(-5.12 -3.22)"/><g class="cls-4"><rect class="cls-5" y="11.85" width="12.56" height="5.41"/></g><polygon class="cls-6" points="16.03 16.03 13.8 16.03 13.8 17.27 17.27 17.27 17.27 0 0 0 0 10.62 1.24 10.62 1.24 1.24 16.03 1.24 16.03 16.03"/><g class="cls-7"><rect class="cls-8" width="17.27" height="17.27"/></g><path d="M25.14,18.33h1.5c0,.63.48,1.05,1.41,1.05s1.42-.42,1.42-1.05-.73-.81-1.59-1c-1.18-.21-2.59-.46-2.59-2.29a2.51,2.51,0,0,1,2.77-2.47A2.53,2.53,0,0,1,30.84,15H29.38c0-.6-.45-1-1.3-1s-1.3.47-1.3,1,.73.82,1.58,1c1.19.21,2.61.46,2.61,2.29,0,1.52-1.17,2.47-2.92,2.47S25.17,19.83,25.14,18.33Z" transform="translate(-5.12 -3.22)"/><path d="M31.73,17.7a3.05,3.05,0,0,1,3.2-3.18,3,3,0,0,1,3.15,3.17V20.6h-1.3V19.44a2.17,2.17,0,0,1-2.1,1.32A2.91,2.91,0,0,1,31.73,17.7Zm4.93-.06a1.75,1.75,0,1,0-3.49,0,1.75,1.75,0,1,0,3.49,0Z" transform="translate(-5.12 -3.22)"/><path d="M39.26,17.22a2.38,2.38,0,0,1,2.48-2.7,2.32,2.32,0,0,1,2.06,1.07,2.27,2.27,0,0,1,2.05-1.07,2.38,2.38,0,0,1,2.48,2.7V20.6H46.9V17.22c0-1-.5-1.37-1.2-1.37s-1.18.41-1.18,1.37V20.6H43.09V17.22c0-1-.52-1.37-1.2-1.37s-1.2.4-1.2,1.37V20.6H39.26Z" transform="translate(-5.12 -3.22)"/><path d="M52.74,17.81v-5h1.53v5c0,1.08.58,1.52,1.33,1.52s1.34-.46,1.34-1.52v-5h1.53v5c0,1.06.58,1.52,1.33,1.52s1.33-.44,1.33-1.52v-5h1.54v5a2.62,2.62,0,0,1-2.74,3,2.45,2.45,0,0,1-2.23-1.2,2.43,2.43,0,0,1-2.23,1.2A2.61,2.61,0,0,1,52.74,17.81Z" transform="translate(-5.12 -3.22)"/><path d="M63.86,13a1,1,0,1,1,1,.95A.93.93,0,0,1,63.86,13Zm.23,1.72h1.43V20.6H64.09Z" transform="translate(-5.12 -3.22)"/><path d="M67.1,12.09h1.43V20.6H67.1Z" transform="translate(-5.12 -3.22)"/><path d="M70.11,12.09h1.43V20.6H70.11Z" transform="translate(-5.12 -3.22)"/><path d="M72.9,13a.95.95,0,1,1,.94.95A.92.92,0,0,1,72.9,13Zm.23,1.72h1.42V20.6H73.13Z" transform="translate(-5.12 -3.22)"/><path d="M75.69,17.7a3.05,3.05,0,0,1,3.21-3.18,3,3,0,0,1,3.15,3.17V20.6H80.74V19.44a2.16,2.16,0,0,1-2.1,1.32A2.92,2.92,0,0,1,75.69,17.7Zm4.93-.06a1.75,1.75,0,1,0-3.49,0,1.75,1.75,0,1,0,3.49,0Z" transform="translate(-5.12 -3.22)"/><path d="M83.23,17.22a2.38,2.38,0,0,1,2.48-2.7,2.29,2.29,0,0,1,2.05,1.07,2.27,2.27,0,0,1,2-1.07,2.38,2.38,0,0,1,2.49,2.7V20.6H90.87V17.22c0-1-.5-1.37-1.2-1.37s-1.19.41-1.19,1.37V20.6H87.05V17.22c0-1-.51-1.37-1.19-1.37s-1.2.4-1.2,1.37V20.6H83.23Z" transform="translate(-5.12 -3.22)"/><path d="M93.25,18.85h1.44c0,.4.36.66,1,.66s1.05-.3,1.05-.66-.53-.52-1.17-.6c-.91-.12-2.25-.28-2.25-1.73,0-1.21.92-2,2.35-2s2.34.82,2.37,1.86H96.68c0-.36-.37-.61-.94-.61s-.93.3-.93.65.54.52,1.17.61c.8.1,2.25.26,2.25,1.74,0,1.2-1,2-2.49,2S93.29,20,93.25,18.85Z" transform="translate(-5.12 -3.22)"/><path class="cls-9" d="M25.14,18.33h1.5c0,.63.48,1.05,1.41,1.05s1.42-.42,1.42-1.05-.73-.81-1.59-1c-1.18-.21-2.59-.46-2.59-2.29a2.51,2.51,0,0,1,2.77-2.47A2.53,2.53,0,0,1,30.84,15H29.38c0-.6-.45-1-1.3-1s-1.3.47-1.3,1,.73.82,1.58,1c1.19.21,2.61.46,2.61,2.29,0,1.52-1.17,2.47-2.92,2.47S25.17,19.83,25.14,18.33Z" transform="translate(-5.12 -3.22)"/><path class="cls-9" d="M31.73,17.7a3.05,3.05,0,0,1,3.2-3.18,3,3,0,0,1,3.15,3.17V20.6h-1.3V19.44a2.17,2.17,0,0,1-2.1,1.32A2.91,2.91,0,0,1,31.73,17.7Zm4.93-.06a1.75,1.75,0,1,0-3.49,0,1.75,1.75,0,1,0,3.49,0Z" transform="translate(-5.12 -3.22)"/><path class="cls-9" d="M39.26,17.22a2.38,2.38,0,0,1,2.48-2.7,2.32,2.32,0,0,1,2.06,1.07,2.27,2.27,0,0,1,2.05-1.07,2.38,2.38,0,0,1,2.48,2.7V20.6H46.9V17.22c0-1-.5-1.37-1.2-1.37s-1.18.41-1.18,1.37V20.6H43.09V17.22c0-1-.52-1.37-1.2-1.37s-1.2.4-1.2,1.37V20.6H39.26Z" transform="translate(-5.12 -3.22)"/><path class="cls-9" d="M52.74,17.81v-5h1.53v5c0,1.08.58,1.52,1.33,1.52s1.34-.46,1.34-1.52v-5h1.53v5c0,1.06.58,1.52,1.33,1.52s1.33-.44,1.33-1.52v-5h1.54v5a2.62,2.62,0,0,1-2.74,3,2.45,2.45,0,0,1-2.23-1.2,2.43,2.43,0,0,1-2.23,1.2A2.61,2.61,0,0,1,52.74,17.81Z" transform="translate(-5.12 -3.22)"/><path class="cls-9" d="M63.86,13a1,1,0,1,1,1,.95A.93.93,0,0,1,63.86,13Zm.23,1.72h1.43V20.6H64.09Z" transform="translate(-5.12 -3.22)"/><path class="cls-9" d="M67.1,12.09h1.43V20.6H67.1Z" transform="translate(-5.12 -3.22)"/><path class="cls-9" d="M70.11,12.09h1.43V20.6H70.11Z" transform="translate(-5.12 -3.22)"/><path class="cls-9" d="M72.9,13a.95.95,0,1,1,.94.95A.92.92,0,0,1,72.9,13Zm.23,1.72h1.42V20.6H73.13Z" transform="translate(-5.12 -3.22)"/><path class="cls-9" d="M75.69,17.7a3.05,3.05,0,0,1,3.21-3.18,3,3,0,0,1,3.15,3.17V20.6H80.74V19.44a2.16,2.16,0,0,1-2.1,1.32A2.92,2.92,0,0,1,75.69,17.7Zm4.93-.06a1.75,1.75,0,1,0-3.49,0,1.75,1.75,0,1,0,3.49,0Z" transform="translate(-5.12 -3.22)"/><path class="cls-9" d="M83.23,17.22a2.38,2.38,0,0,1,2.48-2.7,2.29,2.29,0,0,1,2.05,1.07,2.27,2.27,0,0,1,2-1.07,2.38,2.38,0,0,1,2.49,2.7V20.6H90.87V17.22c0-1-.5-1.37-1.2-1.37s-1.19.41-1.19,1.37V20.6H87.05V17.22c0-1-.51-1.37-1.19-1.37s-1.2.4-1.2,1.37V20.6H83.23Z" transform="translate(-5.12 -3.22)"/><path class="cls-9" d="M93.25,18.85h1.44c0,.4.36.66,1,.66s1.05-.3,1.05-.66-.53-.52-1.17-.6c-.91-.12-2.25-.28-2.25-1.73,0-1.21.92-2,2.35-2s2.34.82,2.37,1.86H96.68c0-.36-.37-.61-.94-.61s-.93.3-.93.65.54.52,1.17.61c.8.1,2.25.26,2.25,1.74,0,1.2-1,2-2.49,2S93.29,20,93.25,18.85Z" transform="translate(-5.12 -3.22)"/></svg>