<svg id="Layer_1" data-name="Layer 1" xmlns="http://www.w3.org/2000/svg" xmlns:xlink="http://www.w3.org/1999/xlink" viewBox="0 0 92.96 17.38"><defs><style>.cls-1,.cls-3{fill:url(#New_Gradient_Swatch_3);}.cls-1,.cls-2{clip-rule:evenodd;}.cls-2,.cls-6{fill:url(#New_Gradient_Swatch_3-2);}.cls-3,.cls-6{fill-rule:evenodd;}.cls-4{clip-path:url(#clip-path);}.cls-5{fill:url(#New_Gradient_Swatch_3-4);}.cls-7{clip-path:url(#clip-path-2);}.cls-8{fill:url(#New_Gradient_Swatch_3-6);}.cls-9{fill:url(#New_Gradient_Swatch_3-7);}</style><linearGradient id="New_Gradient_Swatch_3" x1="5.12" y1="17.78" x2="17.68" y2="17.78" gradientUnits="userSpaceOnUse"><stop offset="0" stop-color="#00656a"/><stop offset="1" stop-color="#3f7596"/></linearGradient><linearGradient id="New_Gradient_Swatch_3-2" x1="5.12" y1="11.85" x2="22.39" y2="11.85" xlink:href="#New_Gradient_Swatch_3"/><clipPath id="clip-path" transform="translate(-5.12 -3.22)"><path class="cls-1" d="M17.68,15.15H16.47l-1.09,3.56L14.2,15.13h-1L12,18.71l-1.09-3.56H9.7l1.79,5.3h1L13.69,17l1.19,3.45h1Zm-8.4,3.7h0c0-.92-.6-1.3-1.66-1.58s-1.14-.35-1.14-.69v0c0-.25.23-.46.68-.46a2.52,2.52,0,0,1,1.37.52l.6-.87a3.06,3.06,0,0,0-2-.67,1.65,1.65,0,0,0-1.84,1.59h0c0,1,.68,1.34,1.74,1.61.88.23,1.06.38,1.06.67h0c0,.31-.28.5-.75.5a2.44,2.44,0,0,1-1.58-.64l-.68.82a3.32,3.32,0,0,0,2.23.84C8.49,20.48,9.28,19.9,9.28,18.85Z"/></clipPath><linearGradient id="New_Gradient_Swatch_3-4" x1="6.29" y1="17.27" x2="6.27" y2="11.33" xlink:href="#New_Gradient_Swatch_3"/><clipPath id="clip-path-2" transform="translate(-5.12 -3.22)"><polygon class="cls-2" points="21.15 19.25 18.92 19.25 18.92 20.48 22.39 20.48 22.39 3.22 5.12 3.22 5.12 13.83 6.36 13.83 6.36 4.45 21.15 4.45 21.15 19.25"/></clipPath><linearGradient id="New_Gradient_Swatch_3-6" x1="8.71" y1="17.27" x2="8.55" y2="-1.67" xlink:href="#New_Gradient_Swatch_3"/><linearGradient id="New_Gradient_Swatch_3-7" x1="61.53" y1="20.6" x2="61.53" y2="11.85" xlink:href="#New_Gradient_Swatch_3"/></defs><path class="cls-3" d="M17.68,15.15H16.47l-1.09,3.56L14.2,15.13h-1L12,18.71l-1.09-3.56H9.7l1.79,5.3h1L13.69,17l1.19,3.45h1Zm-8.4,3.7h0c0-.92-.6-1.3-1.66-1.58s-1.14-.35-1.14-.69v0c0-.25.23-.46.68-.46a2.52,2.52,0,0,1,1.37.52l.6-.87a3.06,3.06,0,0,0-2-.67,1.65,1.65,0,0,0-1.84,1.59h0c0,1,.68,1.34,1.74,1.61.88.23,1.06.38,1.06.67h0c0,.31-.28.5-.75.5a2.44,2.44,0,0,1-1.58-.64l-.68.82a3.32,3.32,0,0,0,2.23.84C8.49,20.48,9.28,19.9,9.28,18.85Z" transform="translate(-5.12 -3.22)"/><g class="cls-4"><rect class="cls-5" y="11.85" width="12.56" height="5.41"/></g><polygon class="cls-6" points="16.03 16.03 13.8 16.03 13.8 17.27 17.27 17.27 17.27 0 0 0 0 10.62 1.24 10.62 1.24 1.24 16.03 1.24 16.03 16.03"/><g class="cls-7"><rect class="cls-8" width="17.27" height="17.27"/></g><path d="M25,18.18h1.5c0,.62.48,1,1.41,1s1.42-.42,1.42-1-.73-.82-1.58-1c-1.19-.22-2.59-.47-2.59-2.29a2.5,2.5,0,0,1,2.77-2.47,2.52,2.52,0,0,1,2.77,2.41H29.24c0-.6-.46-1-1.31-1s-1.3.46-1.3,1,.74.81,1.59,1c1.18.22,2.6.47,2.6,2.29,0,1.52-1.16,2.47-2.92,2.47S25,19.68,25,18.18Z" transform="translate(-5.12 -3.22)"/><path d="M31.58,17.54a3,3,0,0,1,3.2-3.17,3,3,0,0,1,3.15,3.16v2.92h-1.3V19.28a2.15,2.15,0,0,1-2.1,1.32A2.91,2.91,0,0,1,31.58,17.54Zm4.93-.06a1.75,1.75,0,1,0-3.49,0,1.75,1.75,0,1,0,3.49,0Z" transform="translate(-5.12 -3.22)"/><path d="M39.11,17.06a2.37,2.37,0,0,1,2.49-2.69,2.32,2.32,0,0,1,2,1.06,2.28,2.28,0,0,1,2.05-1.06,2.37,2.37,0,0,1,2.48,2.69v3.39H46.75V17.06c0-1-.5-1.36-1.2-1.36s-1.18.4-1.18,1.36v3.39H42.94V17.06c0-1-.52-1.36-1.2-1.36s-1.2.39-1.2,1.36v3.39H39.11Z" transform="translate(-5.12 -3.22)"/><path d="M52.59,17.65v-5h1.53v5c0,1.08.58,1.52,1.34,1.52s1.33-.45,1.33-1.52v-5h1.53v5c0,1.07.58,1.52,1.33,1.52S61,18.73,61,17.65v-5h1.54v5a2.61,2.61,0,0,1-2.73,3,2.46,2.46,0,0,1-2.24-1.2,2.43,2.43,0,0,1-2.23,1.2A2.61,2.61,0,0,1,52.59,17.65Z" transform="translate(-5.12 -3.22)"/><path d="M63.71,12.81a1,1,0,1,1,1.9,0,1,1,0,0,1-1.9,0Zm.23,1.71h1.43v5.93H63.94Z" transform="translate(-5.12 -3.22)"/><path d="M67,11.93h1.43v8.52H67Z" transform="translate(-5.12 -3.22)"/><path d="M70,11.93h1.42v8.52H70Z" transform="translate(-5.12 -3.22)"/><path d="M72.75,12.81a.95.95,0,1,1,1.89,0,.95.95,0,0,1-1.89,0ZM73,14.52H74.4v5.93H73Z" transform="translate(-5.12 -3.22)"/><path d="M75.54,17.54a3,3,0,0,1,3.21-3.17,3,3,0,0,1,3.15,3.16v2.92H80.59V19.28A2.14,2.14,0,0,1,78.5,20.6,2.92,2.92,0,0,1,75.54,17.54Zm4.93-.06a1.67,1.67,0,0,0-1.73-1.78A1.69,1.69,0,0,0,77,17.48a1.69,1.69,0,0,0,1.76,1.79A1.68,1.68,0,0,0,80.47,17.48Z" transform="translate(-5.12 -3.22)"/><path d="M83.08,17.06a2.37,2.37,0,0,1,2.48-2.69,2.31,2.31,0,0,1,2,1.06,2.3,2.3,0,0,1,2.06-1.06,2.37,2.37,0,0,1,2.48,2.69v3.39H90.72V17.06c0-1-.5-1.36-1.2-1.36s-1.19.4-1.19,1.36v3.39H86.91V17.06c0-1-.52-1.36-1.2-1.36s-1.2.39-1.2,1.36v3.39H83.08Z" transform="translate(-5.12 -3.22)"/><path d="M93.1,18.69h1.44c0,.4.36.66,1.06.66s1-.3,1-.66-.53-.51-1.16-.6c-.92-.12-2.26-.27-2.26-1.72,0-1.21.92-2,2.35-2s2.34.81,2.38,1.85H96.53c0-.36-.37-.61-.93-.61s-.94.3-.94.65.54.53,1.18.61,2.24.27,2.24,1.74c0,1.2-1,2-2.48,2S93.14,19.8,93.1,18.69Z" transform="translate(-5.12 -3.22)"/><path class="cls-9" d="M25,18.18h1.5c0,.62.48,1,1.41,1s1.42-.42,1.42-1-.73-.82-1.58-1c-1.19-.22-2.59-.47-2.59-2.29a2.5,2.5,0,0,1,2.77-2.47,2.52,2.52,0,0,1,2.77,2.41H29.24c0-.6-.46-1-1.31-1s-1.3.46-1.3,1,.74.81,1.59,1c1.18.22,2.6.47,2.6,2.29,0,1.52-1.16,2.47-2.92,2.47S25,19.68,25,18.18Z" transform="translate(-5.12 -3.22)"/><path class="cls-9" d="M31.58,17.54a3,3,0,0,1,3.2-3.17,3,3,0,0,1,3.15,3.16v2.92h-1.3V19.28a2.15,2.15,0,0,1-2.1,1.32A2.91,2.91,0,0,1,31.58,17.54Zm4.93-.06a1.75,1.75,0,1,0-3.49,0,1.75,1.75,0,1,0,3.49,0Z" transform="translate(-5.12 -3.22)"/><path class="cls-9" d="M39.11,17.06a2.37,2.37,0,0,1,2.49-2.69,2.32,2.32,0,0,1,2,1.06,2.28,2.28,0,0,1,2.05-1.06,2.37,2.37,0,0,1,2.48,2.69v3.39H46.75V17.06c0-1-.5-1.36-1.2-1.36s-1.18.4-1.18,1.36v3.39H42.94V17.06c0-1-.52-1.36-1.2-1.36s-1.2.39-1.2,1.36v3.39H39.11Z" transform="translate(-5.12 -3.22)"/><path class="cls-9" d="M52.59,17.65v-5h1.53v5c0,1.08.58,1.52,1.34,1.52s1.33-.45,1.33-1.52v-5h1.53v5c0,1.07.58,1.52,1.33,1.52S61,18.73,61,17.65v-5h1.54v5a2.61,2.61,0,0,1-2.73,3,2.46,2.46,0,0,1-2.24-1.2,2.43,2.43,0,0,1-2.23,1.2A2.61,2.61,0,0,1,52.59,17.65Z" transform="translate(-5.12 -3.22)"/><path class="cls-9" d="M63.71,12.81a1,1,0,1,1,1.9,0,1,1,0,0,1-1.9,0Zm.23,1.71h1.43v5.93H63.94Z" transform="translate(-5.12 -3.22)"/><path class="cls-9" d="M67,11.93h1.43v8.52H67Z" transform="translate(-5.12 -3.22)"/><path class="cls-9" d="M70,11.93h1.42v8.52H70Z" transform="translate(-5.12 -3.22)"/><path class="cls-9" d="M72.75,12.81a.95.95,0,1,1,1.89,0,.95.95,0,0,1-1.89,0ZM73,14.52H74.4v5.93H73Z" transform="translate(-5.12 -3.22)"/><path class="cls-9" d="M75.54,17.54a3,3,0,0,1,3.21-3.17,3,3,0,0,1,3.15,3.16v2.92H80.59V19.28A2.14,2.14,0,0,1,78.5,20.6,2.92,2.92,0,0,1,75.54,17.54Zm4.93-.06a1.67,1.67,0,0,0-1.73-1.78A1.69,1.69,0,0,0,77,17.48a1.69,1.69,0,0,0,1.76,1.79A1.68,1.68,0,0,0,80.47,17.48Z" transform="translate(-5.12 -3.22)"/><path class="cls-9" d="M83.08,17.06a2.37,2.37,0,0,1,2.48-2.69,2.31,2.31,0,0,1,2,1.06,2.3,2.3,0,0,1,2.06-1.06,2.37,2.37,0,0,1,2.48,2.69v3.39H90.72V17.06c0-1-.5-1.36-1.2-1.36s-1.19.4-1.19,1.36v3.39H86.91V17.06c0-1-.52-1.36-1.2-1.36s-1.2.39-1.2,1.36v3.39H83.08Z" transform="translate(-5.12 -3.22)"/><path class="cls-9" d="M93.1,18.69h1.44c0,.4.36.66,1.06.66s1-.3,1-.66-.53-.51-1.16-.6c-.92-.12-2.26-.27-2.26-1.72,0-1.21.92-2,2.35-2s2.34.81,2.38,1.85H96.53c0-.36-.37-.61-.93-.61s-.94.3-.94.65.54.53,1.18.61,2.24.27,2.24,1.74c0,1.2-1,2-2.48,2S93.14,19.8,93.1,18.69Z" transform="translate(-5.12 -3.22)"/></svg>