<svg id="Layer_1" data-name="Layer 1" xmlns="http://www.w3.org/2000/svg" viewBox="0 0 92.28 41.1"><defs><style>.cls-1{fill:#f28900;stroke:#f28900;stroke-miterlimit:10;stroke-width:1.7px;}</style></defs><path class="cls-1" d="M25.84,42.74a12.83,12.83,0,0,1-7.94,2.64c-3.88,0-7.77-1.18-10.3-4.27C5.69,38.8,4.5,35.42,4.5,30.75V6.43a.45.45,0,0,1,.9,0V30.86c0,4.56,1.13,7.71,3,9.85,2.47,2.82,6.08,3.83,9.68,3.83a11.68,11.68,0,0,0,7.49-2.7,15.15,15.15,0,0,0,5-11.77V6.43a.45.45,0,0,1,.9,0V30.07a15.15,15.15,0,0,0,4.95,11.77,11.68,11.68,0,0,0,7.49,2.7c3.6,0,7.2-1,9.68-3.83,1.86-2.14,3-5.29,3-9.85V6.43A.44.44,0,0,1,57,6a.45.45,0,0,1,.46.45V30.75c0,4.67-1.19,8-3.1,10.36C51.79,44.2,47.9,45.38,44,45.38a12.83,12.83,0,0,1-7.94-2.64A14.51,14.51,0,0,1,31,34.18,14.51,14.51,0,0,1,25.84,42.74Z" transform="translate(-3.65 -5.13)"/><path class="cls-1" d="M66.09,6.88a.64.64,0,0,1,.67-.62.63.63,0,0,1,.62.62.64.64,0,0,1-.62.68A.65.65,0,0,1,66.09,6.88Zm.73,12.39a.38.38,0,0,1,.39.39V45a.39.39,0,1,1-.78,0V19.66A.38.38,0,0,1,66.82,19.27Z" transform="translate(-3.65 -5.13)"/><path class="cls-1" d="M95.08,31.09c0,4.67-1.46,8-3.66,10.3a13.86,13.86,0,0,1-18.74.67c-.23-.22-.29-.33-.29-.5a.44.44,0,0,1,.45-.4.58.58,0,0,1,.45.23A12.28,12.28,0,0,0,81.4,44.6a12.74,12.74,0,0,0,9.51-3.94c2-2.14,3.27-5.29,3.27-9.52V6.43a.45.45,0,1,1,.9,0Z" transform="translate(-3.65 -5.13)"/></svg>